<svg width="343" height="342" viewBox="0 0 343 342" fill="none" xmlns="http://www.w3.org/2000/svg">
<path fill-rule="evenodd" clip-rule="evenodd" d="M297.314 286.502L324.492 246.577L304.52 205.893L307.333 192.62L342.019 163.318L333.005 115.872L290.084 101.217L282.691 89.9057L286.496 44.6819L246.552 17.5335L205.864 37.5023L192.619 34.6891L163.314 0L115.868 9.01307L101.214 51.9348L89.9046 59.3264L44.6848 55.5044L17.5302 95.3953L37.5023 136.091L34.6891 149.335L0 178.64L9.01049 226.073L51.9066 240.783L59.3062 252.104L55.5009 297.321L95.407 324.485L136.102 304.513L149.348 307.327L178.651 342L226.085 332.989L240.778 290.095L252.098 282.697L297.314 286.502ZM171.867 256.672C206.84 252.251 228.649 238.738 236.672 216.507C239.256 209.552 239.827 201.33 238.709 187.395C238.585 185.781 238.312 184.191 237.889 182.626C236.796 178.478 235.554 175.075 234.089 172.119C232.524 168.393 230.239 164.096 226.886 159.799C226.985 159.476 227.084 159.128 227.184 158.756C227.631 157.116 227.904 155.427 228.028 153.738C228.326 149.317 228.401 145.566 228.202 142.213C228.531 138.514 228.823 135.199 229.081 132.273C229.428 128.341 229.713 125.11 229.941 122.59C229.953 122.515 229.959 122.441 229.966 122.366C229.972 122.292 229.978 122.217 229.99 122.143C230.438 116.082 230.736 111.437 230.91 107.96C231.978 88.2372 223.284 78.6492 215.708 74.0291C208.505 69.6574 200.233 67.9932 192.409 69.3345C189.279 69.8313 186.447 70.6262 183.79 71.7688C181.703 72.6381 179.741 73.6814 177.903 74.9234C173.779 74.0291 169.457 73.5572 164.937 73.5572C155.15 73.5572 145.736 75.7927 136.968 80.1644C131.602 82.8719 124.225 88.3614 119.332 99.3403C118.413 101.327 117.742 103.464 115.655 110.319C110.663 126.266 109.644 132.675 109.644 137.816V150.484C109.644 155.676 110.539 160.743 112.253 165.537C107.26 170.877 104.304 177.559 103.36 184.216C103.186 185.483 103.087 186.774 103.087 188.066C103.087 190.898 103.534 193.431 104.13 195.617C104.006 197.654 103.931 199.517 103.907 201.181C103.509 203.143 103.31 205.106 103.31 207.068V219.09C103.31 221.077 103.534 223.04 103.956 224.977C103.94 225.477 103.903 226.092 103.859 226.828C103.835 227.227 103.808 227.661 103.782 228.132C103.608 231.262 103.534 233.522 103.534 235.261C103.534 260.795 120.3 272.42 135.875 272.42C143.451 272.42 151.126 269.862 159.323 264.621C162.453 262.609 165.11 260.025 167.147 257.045C168.712 256.995 170.277 256.871 171.867 256.672Z" fill="white"/>
<path d="M211.476 189.59C212.204 198.624 212.055 204.447 211.039 207.07C206.811 219.015 192.608 226.514 168.434 229.574C160.275 230.595 152.12 226.735 143.96 217.994C143.96 219.306 144.251 223.238 144.837 229.795C145.274 234.602 145.2 238.534 144.619 241.591C140.975 243.921 138.063 245.089 135.878 245.089C132.524 245.089 130.853 241.812 130.853 235.255C130.853 234.09 130.925 232.234 131.071 229.686C131.215 227.14 131.29 225.354 131.29 224.333C131.29 221.857 131.071 220.11 130.634 219.089V207.072C130.634 206.782 130.706 206.454 130.853 206.089C130.997 205.726 131.143 205.398 131.29 205.105C131.143 203.068 131.215 199.936 131.508 195.711C131.799 193.088 131.799 191.416 131.508 190.686C130.778 189.233 130.418 188.358 130.418 188.065C130.997 183.987 133.987 181.947 139.375 181.947C142.87 181.947 144.981 183.187 145.711 185.661C145.711 187.991 146.002 191.416 146.586 195.929C147.463 201.173 150.227 206.419 154.89 211.66C159.987 217.634 164.865 220.401 169.53 219.964C174.773 219.385 180.017 218.146 185.26 216.25C192.543 213.627 196.913 210.57 198.371 207.075C199.387 204.452 199.898 201.687 199.898 198.771C199.898 189.888 196.622 183.259 190.067 178.89C187.151 176.997 181.763 175.467 173.897 174.299C169.381 173.721 166.611 173.425 165.595 173.425C158.603 173.572 152.083 171.314 146.039 166.651C139.993 161.991 136.973 156.599 136.973 150.481V137.811C136.973 135.046 138.575 128.563 141.782 118.366C143.235 113.557 144.037 111.011 144.186 110.718C145.495 107.661 147.17 105.621 149.209 104.6C154.159 102.126 159.403 100.887 164.94 100.887C175.717 100.887 183.656 105.256 188.755 113.995C189.193 114.432 189.92 115.088 190.941 115.962C191.085 113.925 191.378 110.793 191.816 106.568C191.669 104.675 191.522 102.854 191.378 101.106C191.378 99.0688 192.394 97.6852 194.436 96.9549C195.017 96.6643 195.82 96.4457 196.841 96.2992C198.296 96.0085 199.863 96.3737 201.54 97.3896C203.212 98.4105 203.905 101.471 203.614 106.565C203.468 109.77 203.177 114.285 202.74 120.11C202.303 124.919 201.649 132.274 200.773 142.18C201.063 144.51 201.063 147.716 200.773 151.793C200.042 154.56 197.856 155.943 194.218 155.943C192.322 155.943 190.504 155.434 188.755 154.416C187.881 151.651 187.446 150.481 187.446 150.918C187.734 146.986 186.935 141.743 185.042 135.187C183.437 131.839 181.219 127.07 178.378 120.878C175.536 114.688 171.785 111.372 167.125 110.934C161.298 110.497 157.513 112.465 155.764 116.834C155.183 118.729 154.378 121.499 153.362 125.138C151.613 130.528 150.52 135.699 150.083 140.65C149.937 142.254 149.79 142.91 149.646 142.617C150.083 145.533 150.592 148.444 151.176 151.358C151.904 154.999 153.69 157.769 156.529 159.659C159.371 161.554 164.793 162.717 172.806 163.154C192.469 164.324 204.63 171.17 209.292 183.694C210.018 184.861 210.746 186.826 211.476 189.59Z" fill="white"/>
</svg>
